<svg id="LOGO2" xmlns="http://www.w3.org/2000/svg" width="300.016" height="69.6" viewBox="0 0 300.016 69.6">
  <path id="パス_101139" data-name="パス 101139" d="M104.82,66.9a1.943,1.943,0,0,0-.3-1.3l-1.2-2.6c-.2-.5-.3-.6-.7-.7l-.3-.1v-.3h2.4v.3l-.3.1-.2.1c0,.1,0,.2.2.6.4.9.7,1.8,1.1,2.6a25.569,25.569,0,0,0,1.1-2.4,2.6,2.6,0,0,0,.3-.7l-.2-.2-.3-.1v-.3h1.9v.3l-.3.1c-.4.1-.6.3-1.1,1.2l-.9,1.8a2.6,2.6,0,0,0-.4,1.5v.6c0,1.1.1,1.2.6,1.2h.4v.3h-2.9v-.3h.3q.5-.1.5-1.2v-.5h.3Z" transform="translate(-0.004)" fill="#231716"/>
  <path id="パス_101140" data-name="パス 101140" d="M112.62,62.2c1.5,0,2.2,1.9,2.2,3.5,0,2.2-.9,3.1-2,3.1-1.7,0-2.2-2-2.2-3.5,0-2.3,1-3.1,2-3.1m.1-.4a3.556,3.556,0,0,0-3.5,3.8,3.456,3.456,0,1,0,6.9-.1c0-1.9-1.1-3.7-3.4-3.7" transform="translate(-0.004)" fill="#231716"/>
  <path id="パス_101141" data-name="パス 101141" d="M119.62,64.7c0,.3,0,.5.2.5s.4-.2.7-.6l1-1.2.5-.7.1-.4-.3-.1v-.3h2.2v.3a2.344,2.344,0,0,0-1.8,1.1,15.381,15.381,0,0,1-1.2,1.3V65c.8,1.1,1.7,2.4,2.4,3.3a.755.755,0,0,0,.7.4h.2V69h-2.5v-.3h.3l.1-.3c-.4-.6-1.6-2.3-1.9-2.7l-.2-.2c-.2,0-.2.3-.2.6v1.4c0,1.1.1,1.2.5,1.2h.2V69h-2.5v-.3h.1q.5-.1.5-1.3v-4c0-1.1-.1-1.2-.5-1.2h-.2v-.3h2.5v.3h-.2q-.5.1-.5,1.2v1.3h-.2Z" transform="translate(-0.004)" fill="#231716"/>
  <path id="パス_101142" data-name="パス 101142" d="M128.22,62.2c1.5,0,2.2,1.9,2.2,3.5,0,2.2-.9,3.1-2,3.1-1.7,0-2.2-2-2.2-3.5,0-2.3,1.1-3.1,2-3.1m.2-.4a3.556,3.556,0,0,0-3.5,3.8,3.462,3.462,0,1,0,3.5-3.8" transform="translate(-0.004)" fill="#231716"/>
  <path id="パス_101143" data-name="パス 101143" d="M135.82,65.7q-.5,0-.5.3v1.6c0,1.1.1,1.2.5,1.2h.3v.3h-2.6v-.3h.1q.5-.1.5-1.3v-4c0-1.1-.1-1.2-.5-1.2h-.2V62h2.5v.3h-.2q-.5.1-.5,1.2v1.3q0,.3.5.3h2.3q.5,0,.5-.3V63.5c0-1.1-.1-1.2-.5-1.2h-.2V62h2.6v.3h-.2q-.5.1-.5,1.2v4c0,1.1.1,1.2.5,1.2h.2V69h-2.6v-.3h.2q.5-.1.5-1.2V66q0-.3-.5-.3h-2.2Z" transform="translate(-0.004)" fill="#231716"/>
  <path id="パス_101144" data-name="パス 101144" d="M143.92,66c-.2,0-.3,0-.2-.3l.4-1.3a4.178,4.178,0,0,0,.3-.9h0c.1.1.1.3.3.9l.4,1.3-.2.3Zm1.1.5a.392.392,0,0,1,.4.3l.5,1.5q.1.5-.3.6h-.2v.3h2.5v-.3h-.1c-.5-.1-.5-.2-.8-.9l-1.4-4.5a8.33,8.33,0,0,1-.4-1.5l-.2-.1a1.485,1.485,0,0,1-.7.5,4.5,4.5,0,0,1-.2.8l-1.3,3.8c-.2.6-.4,1-.5,1.3-.1.4-.3.5-.5.5l-.3.1v.3h2v-.3l-.3-.1q-.4-.1-.2-.7l.4-1.3q.1-.3.3-.3Z" transform="translate(-0.004)" fill="#231716"/>
  <path id="パス_101145" data-name="パス 101145" d="M157.22,68.8v.3h-2.5v-.3l.3-.1q.4-.1.4-.9V63.4h0c-.3.6-.4.9-.6,1.3l-.8,1.9c-.3.8-.8,2-1,2.5h-.3c-.2-.6-.6-1.6-.8-2.2l-.9-2.1c-.2-.5-.4-1.1-.6-1.5h0a10.282,10.282,0,0,1-.1,1.8v2.5c0,.7,0,.9.4,1l.3.1V69h-2v-.3h.2c.5-.1.5-.2.6-.9a17.771,17.771,0,0,0,.1-2.5c0-.7.1-1.6.1-2.3,0-.5-.1-.7-.5-.8l-.3-.1v-.3h1.9a6.07,6.07,0,0,0,.5,1.8l1.1,2.5.5,1a5.821,5.821,0,0,0,.5-1.1l.9-2.1a13.063,13.063,0,0,0,.8-2.1h1.8v.3l-.3.1c-.4.1-.5.2-.5.8,0,1.6,0,3.2.1,4.8,0,.7.1.8.4.8l.3.2Z" transform="translate(-0.004)" fill="#231716"/>
  <path id="パス_101146" data-name="パス 101146" d="M160.62,66c-.2,0-.3,0-.2-.3l.4-1.3a4.178,4.178,0,0,0,.3-.9h0a7.783,7.783,0,0,0,.3.9l.4,1.3-.2.3Zm1.1.5a.392.392,0,0,1,.4.3l.5,1.5q.1.5-.3.6h-.2v.3h2.5v-.3h-.1c-.5-.1-.5-.2-.8-.9l-1.4-4.5a8.33,8.33,0,0,1-.4-1.5l-.2-.1a1.485,1.485,0,0,1-.7.5,4.5,4.5,0,0,1-.2.8l-1.3,3.8c-.2.6-.4,1-.5,1.3-.1.4-.3.5-.5.5l-.3.1v.3h2v-.3l-.3-.1q-.4-.1-.2-.7l.4-1.3q.1-.3.3-.3Z" transform="translate(-0.004)" fill="#231716"/>
  <path id="パス_101147" data-name="パス 101147" d="M171.62,62.9a.442.442,0,0,1,.5-.5c.8,0,1.3.7,1.3,1.6,0,1-.4,1.5-1.4,1.5q-.5,0-.5-.4V62.9h.1Zm-1.1,4.7c0,1.1-.1,1.2-.5,1.2h-.2v.3h2.6v-.3h-.2q-.5-.1-.5-1.2V66.2q0-.2.3-.2c.3,0,.4,0,.6.4s.5,1,.8,1.5c.6,1,1.1,1.4,2,1.4.3,0,.5,0,.6-.1V69l-.7-.3a10.726,10.726,0,0,1-1.7-2.8v-.2a1.8,1.8,0,0,0,1.2-1.7,1.769,1.769,0,0,0-.9-1.6,3.207,3.207,0,0,0-1.8-.4,14.79,14.79,0,0,0-2.2.1v.3h.3c.5.1.5.2.5,1.2v4h-.2Z" transform="translate(-0.004)" fill="#231716"/>
  <path id="パス_101148" data-name="パス 101148" d="M177.72,63.5c0-1.1-.1-1.2-.5-1.3h-.2v-.3h4.5a12.544,12.544,0,0,0,.2,1.5h-.3c-.2-.6-.3-.9-.6-1l-.8-.1h-.7q-.4,0-.4.6v1.8q0,.3.2.3h.5c.8,0,1,0,1.1-.5l.1-.4h.3v2.2h-.3l-.1-.4c-.1-.5-.2-.5-1.1-.5h-.5l-.2.3v1.4c0,.6,0,.9.2,1.1.1.2.3.2,1.1.2,1.2,0,1.5-.3,1.8-1.2l.3.1c-.1.5-.3,1.3-.4,1.6h-5v-.3h.4q.5-.1.5-1.2V63.5Z" transform="translate(-0.004)" fill="#231716"/>
  <path id="パス_101149" data-name="パス 101149" d="M185.32,63.3c0-.5,0-.7.1-.8a1.292,1.292,0,0,1,.8-.2c1.6,0,2.7,1,2.7,3.2,0,1.8-.8,3.2-2.5,3.2-1,0-1.1-.6-1.1-1.6Zm-1.1,4.3c0,1.1-.1,1.2-.5,1.2h-.2v.3h1.2c.4,0,.8.1,1.4.1a4.709,4.709,0,0,0,2.4-.5,3.463,3.463,0,0,0,1.7-3.1,3.167,3.167,0,0,0-2-3.2,5.558,5.558,0,0,0-2.3-.4,16.987,16.987,0,0,0-2.4.1v.3h.2c.5.1.5.2.5,1.2v4h0Z" transform="translate(-0.004)" fill="#231716"/>
  <path id="パス_101150" data-name="パス 101150" d="M197.72,65.8c0-.2,0-.3.4-.3a1.68,1.68,0,0,1,1.8,1.8,1.237,1.237,0,0,1-1.3,1.4c-.8,0-.9-.4-.9-1.4Zm-1.1,1.8c0,1.1-.1,1.2-.5,1.2h-.2v.3h2.5a3.217,3.217,0,0,0,2.2-.6,1.974,1.974,0,0,0,.6-1.4,1.794,1.794,0,0,0-1.6-1.9l-.1-.1.1-.1a1.391,1.391,0,0,0,1.1-1.4,1.417,1.417,0,0,0-.7-1.4,3.361,3.361,0,0,0-1.9-.4c-1.1,0-1.8.1-2.2.1v.3h.3c.5.1.5.2.5,1.2v4.2h-.1Zm1.1-4.8c0-.4,0-.5.5-.5a1.182,1.182,0,0,1,1.2,1.3c0,1-.4,1.4-1.3,1.4q-.4,0-.4-.3V62.8Z" transform="translate(-0.004)" fill="#231716"/>
  <path id="パス_101151" data-name="パス 101151" d="M204.62,62.9a.442.442,0,0,1,.5-.5c.8,0,1.3.7,1.3,1.6,0,1-.4,1.5-1.4,1.5q-.5,0-.5-.4V62.9h.1Zm-1.1,4.7c0,1.1-.1,1.2-.5,1.2h-.2v.3h2.6v-.3h-.2q-.5-.1-.5-1.2V66.2q0-.2.3-.2c.3,0,.4,0,.6.4s.5,1,.8,1.5c.6,1,1.1,1.4,2,1.4.3,0,.5,0,.6-.1V69l-.7-.3a10.726,10.726,0,0,1-1.7-2.8v-.2a1.8,1.8,0,0,0,1.2-1.7,1.769,1.769,0,0,0-.9-1.6,3.207,3.207,0,0,0-1.8-.4,14.79,14.79,0,0,0-2.2.1v.3h.3c.5.1.5.2.5,1.2v4h-.2Z" transform="translate(-0.004)" fill="#231716"/>
  <path id="パス_101152" data-name="パス 101152" d="M211.82,67.6c0,1.1.1,1.2.5,1.2h.2v.3h-2.6v-.3h.2q.5-.1.5-1.2v-4c0-1.1-.1-1.2-.5-1.2h-.2v-.3h2.6v.3h-.2q-.5.1-.5,1.2Z" transform="translate(-0.004)" fill="#231716"/>
  <path id="パス_101153" data-name="パス 101153" d="M220.22,63.8h-.3a1.869,1.869,0,0,0-1.9-1.6c-1.2,0-2.5,1-2.5,3.2s1.3,3.4,2.5,3.4a2.072,2.072,0,0,0,2-1.6h.3a3.726,3.726,0,0,1-.5,1.6l-.3.1a4.307,4.307,0,0,1-1.5.3,4.093,4.093,0,0,1-2.5-.7,3.612,3.612,0,0,1-1.4-3,3.9,3.9,0,0,1,1.2-2.9,4.188,4.188,0,0,1,2.7-.9,8.806,8.806,0,0,1,1.7.2l.3.1c.1.4.1,1,.2,1.8" transform="translate(-0.004)" fill="#231716"/>
  <path id="パス_101154" data-name="パス 101154" d="M223.72,64.7c0,.3,0,.5.2.5s.4-.2.7-.6l1-1.2.5-.7.1-.4-.3-.1v-.3h2.2v.3a2.344,2.344,0,0,0-1.8,1.1,15.38,15.38,0,0,1-1.2,1.3V65c.8,1.1,1.7,2.4,2.4,3.3a.755.755,0,0,0,.7.4h.2V69h-2.5v-.3h.3l.1-.3c-.4-.6-1.6-2.3-1.9-2.7l-.2-.2c-.2,0-.2.3-.2.6v1.4c0,1.1.1,1.2.5,1.2h.2V69h-2.5v-.3h.1q.5-.1.5-1.3v-4c0-1.1-.1-1.2-.5-1.2h-.2v-.3h2.5v.3h-.2q-.5.1-.5,1.2v1.3h-.2Z" transform="translate(-0.004)" fill="#231716"/>
  <path id="パス_101155" data-name="パス 101155" d="M242.52,62.3c-.4.1-.6.3-1,1.2-.7,1.8-1.4,3.3-1.9,4.8a4.649,4.649,0,0,1-.3.9h-.4a31.142,31.142,0,0,0-1.2-3c-.4,1-.9,2-1.2,3h-.4c-.2-.5-.4-1.1-.7-1.7l-1.9-4.4c-.2-.5-.3-.7-.7-.8l-.3-.1v-.3h2.4v.3l-.2.1-.2.2c0,.1.1.3.2.7l1.3,2.8a16.471,16.471,0,0,0,.7,1.6c.2-.4.4-.9.7-1.5l.1-.4-.1-.3-1-2.4c-.2-.4-.3-.5-.6-.6l-.3-.1V62h2.3v.3l-.3.1-.2.1.1.4a11.11,11.11,0,0,0,.7,1.6c.2-.4.3-.8.5-1.2.1-.4.2-.6.2-.7l-.2-.2-.3-.1V62h1.8v.3l-.2.1c-.4.1-.5.2-.8.8-.2.4-.5,1-.7,1.5l-.1.3.1.3.4,1a7.91,7.91,0,0,1,.5,1.3c.5-1.3,1-2.7,1.5-4.1a3.259,3.259,0,0,0,.3-1l-.3-.2-.2-.1v-.3h1.9v.4Z" transform="translate(-0.004)" fill="#231716"/>
  <path id="パス_101156" data-name="パス 101156" d="M244.82,66c-.2,0-.3,0-.2-.3l.4-1.3a8.49,8.49,0,0,1,.3-.9h0a7.783,7.783,0,0,0,.3.9l.4,1.3-.2.3Zm1.1.5a.392.392,0,0,1,.4.3l.5,1.5q.1.5-.3.6h-.2v.3h2.5v-.3h-.1c-.5-.1-.5-.2-.8-.9l-1.4-4.5a8.33,8.33,0,0,1-.4-1.5l-.2-.1a1.485,1.485,0,0,1-.7.5,4.5,4.5,0,0,1-.2.8l-1.3,3.8c-.2.6-.4,1-.5,1.3-.1.4-.3.5-.5.5l-.3.1v.3h2v-.3l-.3-.1q-.4-.1-.2-.7l.4-1.3q.1-.3.3-.3Z" transform="translate(-0.004)" fill="#231716"/>
  <path id="パス_101157" data-name="パス 101157" d="M251.72,62.9a.442.442,0,0,1,.5-.5c.8,0,1.3.7,1.3,1.6,0,1-.4,1.5-1.4,1.5q-.5,0-.5-.4V62.9h.1Zm-1.1,4.7c0,1.1-.1,1.2-.5,1.2h-.2v.3h2.6v-.3h-.2q-.5-.1-.5-1.2V66.2q0-.2.3-.2c.3,0,.4,0,.6.4s.5,1,.8,1.5c.6,1,1.1,1.4,2,1.4.3,0,.5,0,.6-.1V69a1.74,1.74,0,0,1-.7-.3,10.726,10.726,0,0,1-1.7-2.8v-.2a1.8,1.8,0,0,0,1.2-1.7,1.769,1.769,0,0,0-.9-1.6,3.207,3.207,0,0,0-1.8-.4,14.79,14.79,0,0,0-2.2.1v.3h.3c.5.1.5.2.5,1.2v4h-.2Z" transform="translate(-0.004)" fill="#231716"/>
  <path id="パス_101158" data-name="パス 101158" d="M257.92,63.5c0-1.1-.1-1.2-.5-1.3h-.2v-.3h4.5a12.542,12.542,0,0,0,.2,1.5h-.3c-.2-.6-.3-.9-.6-1l-.8-.1h-.7q-.4,0-.4.6v1.8q0,.3.2.3h.5c.8,0,1,0,1.1-.5l.1-.4h.3v2.2h-.3l-.1-.4c-.1-.5-.2-.5-1.1-.5h-.5l-.2.3v1.4c0,.6,0,.9.2,1.1.1.2.3.2,1.1.2,1.2,0,1.5-.3,1.8-1.2l.3.1c-.1.5-.3,1.3-.4,1.6h-5v-.3h.4q.5-.1.5-1.2V63.5Z" transform="translate(-0.004)" fill="#231716"/>
  <path id="パス_101159" data-name="パス 101159" d="M266.52,65.7q-.5,0-.5.3v1.6c0,1.1.1,1.2.5,1.2h.3v.3h-2.6v-.3h.1q.5-.1.5-1.3v-4c0-1.1-.1-1.2-.5-1.2h-.2V62h2.5v.3h-.2q-.5.1-.5,1.2v1.3q0,.3.5.3h2.3q.5,0,.5-.3V63.5c0-1.1-.1-1.2-.5-1.2h-.2V62h2.6v.3h-.2q-.5.1-.5,1.2v4c0,1.1.1,1.2.5,1.2h.2V69h-2.6v-.3h.2q.5-.1.5-1.2V66q0-.3-.5-.3h-2.2Z" transform="translate(-0.004)" fill="#231716"/>
  <path id="パス_101160" data-name="パス 101160" d="M275.72,62.2c1.5,0,2.2,1.9,2.2,3.5,0,2.2-.9,3.1-2,3.1-1.7,0-2.2-2-2.2-3.5-.1-2.3,1-3.1,2-3.1m.1-.4a3.556,3.556,0,0,0-3.5,3.8,3.456,3.456,0,1,0,6.9-.1c0-1.9-1.1-3.7-3.4-3.7" transform="translate(-0.004)" fill="#231716"/>
  <path id="パス_101161" data-name="パス 101161" d="M281.32,63.5c0-1.1-.1-1.2-.5-1.3h-.2v-.3h2.6v.3h-.2q-.5.1-.5,1.3V66c0,1.5.4,2.7,1.8,2.7,1.3,0,1.8-1.1,1.8-2.7V64.6a5.892,5.892,0,0,0-.2-2.1l-.5-.3h-.2v-.3h2.1v.3l-.2.1-.4.3a11.566,11.566,0,0,0-.1,2.1V66a3.888,3.888,0,0,1-.6,2.5,2.364,2.364,0,0,1-1.9.8,2.444,2.444,0,0,1-2-.7,3.523,3.523,0,0,1-.6-2.3V63.5h-.2Z" transform="translate(-0.004)" fill="#231716"/>
  <path id="パス_101162" data-name="パス 101162" d="M288.82,68.8a3.233,3.233,0,0,1-.3-1.6h.3c.2.6.7,1.7,1.7,1.7a1.155,1.155,0,0,0,1.2-1.2,1.936,1.936,0,0,0-1-1.6l-.4-.3a2.631,2.631,0,0,1-1.4-2.1,1.917,1.917,0,0,1,2.1-2,5.066,5.066,0,0,1,1.3.2,5.418,5.418,0,0,1,.2,1.5h-.3a1.4,1.4,0,0,0-1.3-1.3,1.044,1.044,0,0,0-1.1,1.1c0,.5.3.9.9,1.3l.6.4a2.465,2.465,0,0,1,1.3,2.1,2.054,2.054,0,0,1-2.3,2.1,1.542,1.542,0,0,1-1.5-.3" transform="translate(-0.004)" fill="#231716"/>
  <path id="パス_101163" data-name="パス 101163" d="M294.92,63.5c0-1.1-.1-1.2-.5-1.3h-.2v-.3h4.5a12.542,12.542,0,0,0,.2,1.5h-.3c-.2-.6-.3-.9-.6-1l-.8-.1h-.7q-.4,0-.4.6v1.8q0,.3.2.3h.5c.8,0,1,0,1.1-.5l.1-.4h.3v2.2h-.3l-.1-.4c-.1-.5-.2-.5-1.1-.5h-.5l-.2.3v1.4c0,.6,0,.9.2,1.1.1.2.3.2,1.1.2,1.2,0,1.4-.3,1.8-1.2l.3.1c-.1.5-.3,1.3-.4,1.6h-5v-.3h.4q.5-.1.5-1.2V63.5Z" transform="translate(-0.004)" fill="#231716"/>
  <path id="パス_101164" data-name="パス 101164" d="M131.32,44.8a22.037,22.037,0,0,1-4.4,7.6l2.2,2.8s2.5-2.7,3.7-8.9l-1.5-1.5Z" transform="translate(-0.004)" fill="#231716"/>
  <path id="パス_101165" data-name="パス 101165" d="M132.52,53.5l1,1.4a17.111,17.111,0,0,0,7.2-5.5l-2.9-1.6a12.22,12.22,0,0,1-5.3,5.7" transform="translate(-0.004)" fill="#231716"/>
  <path id="パス_101166" data-name="パス 101166" d="M132.72,36.5l1.6-2.7a14.494,14.494,0,0,0-5.5-2.9l-.6,1.7a20.077,20.077,0,0,1,4.5,3.9" transform="translate(-0.004)" fill="#231716"/>
  <path id="パス_101167" data-name="パス 101167" d="M131.52,43l1.3-2.7a14.207,14.207,0,0,0-5.1-3.1l-.7,1.7a14.5,14.5,0,0,1,4.5,4.1" transform="translate(-0.004)" fill="#231716"/>
  <path id="パス_101168" data-name="パス 101168" d="M144.62,47.9l-1.7,1.4a20.943,20.943,0,0,0,5.6,6.2l2.6-2.3c-1.3-.8-4.6-2.5-6.5-5.3" transform="translate(-0.004)" fill="#231716"/>
  <path id="パス_101169" data-name="パス 101169" d="M133.52,47.6h16.7V45.5h-4.4V38.9h3.6V36.8h-10.6V33.7c3.3-.1,9.8-.7,9.8-.7l-2.2-3a21.659,21.659,0,0,1-7.9,2.1l-2.7-.2V45.4h-2.3v2.2h0Zm5.3-8.7h4.3v6.6h-4.3Z" transform="translate(-0.004)" fill="#231716"/>
  <path id="パス_101170" data-name="パス 101170" d="M264.42,31l.4-.6-3.5-.4a14.312,14.312,0,0,1-9.2,5.9l.3,1.6a15.52,15.52,0,0,0,5.5-1.2v1.2h10.5V36a14.953,14.953,0,0,0,4.6,1.5l1.2-2.1a20.923,20.923,0,0,1-9.8-4.4m2.4,4.5h-7.4l.1-.1a14.4,14.4,0,0,0,3.8-3.2,20.818,20.818,0,0,0,3.7,3.2Z" transform="translate(-0.004)" fill="#231716"/>
  <path id="パス_101171" data-name="パス 101171" d="M257.62,47h13.5V38.6h-16.3s-.1,3.9-.1,4.6c-.2,6.5-1.6,8.3-3.3,10l1.2,1.4a12.431,12.431,0,0,0,4.4-5.3v6.1h2.9v-.7h9.1v.7h2.9V48.5h-14.6l.3-1.5m.2-6.4h10.5V42h-10.5Zm0,3.2h10.5v1.3h-10.5a5.652,5.652,0,0,1,0-1.3m2.1,6.7h9.1v2.4h-9.1Z" transform="translate(-0.004)" fill="#231716"/>
  <path id="パス_101172" data-name="パス 101172" d="M172.42,43.6l-1.6,1c1.4,2.5,1.7,4.4,3.1,8.2l2.8-2a41.9,41.9,0,0,0-4.3-7.2" transform="translate(-0.004)" fill="#231716"/>
  <path id="パス_101173" data-name="パス 101173" d="M157.42,43.3a22.171,22.171,0,0,1-3.9,7.2l1.2,1.6a40.65,40.65,0,0,0,5.6-7.3l-2.9-1.5Z" transform="translate(-0.004)" fill="#231716"/>
  <path id="パス_101174" data-name="パス 101174" d="M176.72,40h-9.8V35.4h7.9V33.3h-7.9V31.9h0v-.3a2.9,2.9,0,0,1,.2-1.2l-3.4-.2v2.1h0v1h-7.6v2.1h7.6V40h-9.9v2.2h7.4c0,8.2-.2,9.5-3.6,11.3l.5,1.7c4.5-1.7,6.1-2.5,6.1-13h2.4v10c0,.7-.3,1.1-.9,1.1h-.8l.3,2.1h1c1.9,0,3.5-1,3.5-3V42.2h7.2V40h-.2Z" transform="translate(-0.004)" fill="#231716"/>
  <path id="パス_101175" data-name="パス 101175" d="M300.02,34.9V32.6h-8.9v-.9h0v-.1a3.173,3.173,0,0,1,.2-1.3l-3.8-.2v2.4h0v.1h-9.2c.1,5,.2,6.9.2,9.6,0,5.9-.3,8.4-2,11.3l1.5,1.2c1.4-2.1,3.5-5.4,3.5-14.4,0-2.1-.1-3.8-.1-5.3h7.6v1.7h-6.5v2h6.5v1.5h-6.2v8.6h6.2v1.4h-7.5v2.2h7.5v3.1h3.2V52.4h7.7V50.2h-7.7V48.8h6.3V40.2h-6.3V38.7h7.4v-2h-7.4l.1-1.7,7.7-.1Zm-11,12h-3.3V45.5h3.3Zm0-3.4h-3.3V42.2h3.3Zm6.6,3.4h-3.4V45.5h3.4Zm0-3.4h-3.4V42.2h3.4Z" transform="translate(-0.004)" fill="#231716"/>
  <path id="パス_101176" data-name="パス 101176" d="M185.22,50.9c8.5-1,12.4-7.2,13.9-12.8l1.9,1.2c-1.6,5.1-4.9,14.6-19.2,15.1V31.5l3.3.2V50.9Z" transform="translate(-0.004)" fill="#231716"/>
  <path id="パス_101177" data-name="パス 101177" d="M210.02,39.5c-2.2-2.2-4.5-4.6-7.1-5.5l.8-1.7a24.3,24.3,0,0,1,8.2,4Zm-7.2,11.2c8.6-.7,15.3-3.4,19-15.8l1.9.9c-3,12-8.1,17.5-19.8,18.6l-1.1-3.7Z" transform="translate(-0.004)" fill="#231716"/>
  <path id="パス_101178" data-name="パス 101178" d="M246.72,36.2v3.6c0,1.3-.2,9.3-.9,11.9-.7,2.4-2.4,2.8-4.3,2.8-2,0-2.9-.1-2.9-.1l-.6-2.2h2.8c1.4,0,2.1-.3,2.4-3.5.1-1.5.4-7,.4-8.1V38.4h-6.6c-1.1,7.9-3.6,13.4-9.7,15.7l-.5-1.7c5.1-2.4,6.2-8.3,7.1-14h-6.5V36h6.7a28.333,28.333,0,0,0,0-5.1l3.2.1c0,2.4,0,3.3-.1,4.9h9.5v.3Zm-3-.5a11.542,11.542,0,0,0-1.6-4.5l1.4-.6a11.106,11.106,0,0,1,2.2,3.9l-2,1.2Zm3.1-1.4a12.161,12.161,0,0,0-2-4.3l1.4-.7a10.413,10.413,0,0,1,2.5,3.6Z" transform="translate(-0.004)" fill="#231716"/>
  <path id="パス_101179" data-name="パス 101179" d="M107.12,38.5V36.8h2.4V34.9h-2.4V31.4a3.139,3.139,0,0,1,.1-.9l-2.7-.2v4.6h-2.8v1.9h2.6c-.4,3.5-1.3,7.4-3.7,10.5l.6.7a13.735,13.735,0,0,0,3.2-3.7h.1v11h2.6V42.6h.1c.5.6.9,1.1,1.6,2.1l.9-1.8a19.825,19.825,0,0,1-2.6-4.4" transform="translate(-0.004)" fill="#231716"/>
  <path id="パス_101180" data-name="パス 101180" d="M119.52,50.3h3.6V40.8h-5.3V39.2h6.3V37.4h-4V34.9h3.4V33h-3.4V31.4h0v-.1a3.139,3.139,0,0,1,.1-.9l-2.7-.2v1.7h0V33h-2.5V31.4h0v-.1a3.139,3.139,0,0,1,.1-.9l-2.7-.2v1.7h0V33h-2.7v1.9h2.7v2.5h-3.3v1.8h5.8v1.6h-4.9v9.5h3.4a14.4,14.4,0,0,1-4.3,3.6l.9,1.3a20.564,20.564,0,0,0,4.9-2.5c.5-.4,1.2-.9,1.2-.9l-1.6-1.5h4.3l-.9.8a14.22,14.22,0,0,0,5.2,4.2l1.4-2.2a18.543,18.543,0,0,1-5-2.8m-4.4-2h-2.4v-2h2.4Zm0-3.5h-2.4V42.7h2.4Zm2.5-7.5h-2.5V34.8h2.5Zm2.8,7.5h-2.6V42.7h2.6Zm-2.5,1.5h2.6v2h-2.6Z" transform="translate(-0.004)" fill="#231716"/>
  <path id="パス_101181" data-name="パス 101181" d="M95.12,22.1l-.2-.5a7.814,7.814,0,0,0-2-1.1c-1.2-.6-2.3-1.2-3.5-1.9a11.761,11.761,0,0,1-1.9-1V13.4h-1.2v4.2c-.6.4-1.5.8-2.1,1.2-1.2.7-2.4,1.3-3.6,2-.4.2-1.2.5-1.4.9-.2.3-.1.7-.2,1.1,0,1,.2,4.2-.2,4.8-.3.5-4.8-.1-5.1.4-.4.6-.2,1.9-.2,2.7h-.1v-.1a8.175,8.175,0,0,1-2-1.2c-1.8-1.1-3.6-2.3-5.3-3.4-6.1-3.8-12.1-7.7-18.1-11.5-1.7-1.1-3.3-2.1-5-3.2a8.554,8.554,0,0,1-2.2-1.5c-.4-.7-.1-1.9-.1-2.8V0h-1.5V7.4a9.459,9.459,0,0,1-.1,2.4,13.709,13.709,0,0,1-2.3,1.7c-2.1,1.3-4.2,2.7-6.3,4-7.9,5.1-15.7,10.1-23.6,15.2h-.1c0,.2-.1-2.1-.1-2.8-.9,0-6.2-.1-6.5.2s-.2,9.3-.2,10.6V69.6h95.1V22.1M73.72,32.9c0,1.1.1,8.2-.2,8.5s-7.7.2-8.8.2V32.9Zm-.2,19.2c-.3.3-7.7.2-8.8.2V43.2h9c0,1.1.1,8.6-.2,8.9m0,10.7c-.3.3-7.7.2-8.8.2V53.9h9c0,1,.1,8.6-.2,8.9M6.72,32.9h9c0,1.1.1,8.2-.2,8.5s-7.7.2-8.8.2V32.9Zm0,10.2h9c0,1.1.1,8.6-.2,9-.3.3-7.7.2-8.8.2V43.1Zm0,10.7h9c0,1.1.1,8.7-.2,9s-7.7.2-8.8.2V53.8ZM1.32,29.3h4.1a4.869,4.869,0,0,1-.2,2.1c-.2.3-3.3.2-3.9.2V29.3Zm0,3.6h4.1c0,1.1.1,8.2-.2,8.5s-3.2.2-3.9.2V32.9Zm0,10.2h4.1v6.6a5.661,5.661,0,0,1-.2,2.3v.1a16.444,16.444,0,0,1-3.9.2V43.1Zm4,24.9c-.3.3-3.2.2-3.9.2V64.5h4.1c-.1.6.1,3.2-.2,3.5m0-5.3h0c-.6.4-3.1.3-4,.3V53.9h4.1v6.6c0,.6.2,1.7-.1,2.2M15.52,68c-.3.3-7.7.2-8.8.2V64.5h9c0,.6.1,3.2-.2,3.5m5.3,0c-.2.3-3.3.2-3.9.2V64.5h4c.1.6.2,3.2-.1,3.5m0-15.9h0c-.6.4-3,.2-3.8.2V43.2h4v6.6a5.832,5.832,0,0,1-.2,2.3m.2,1.7v7a4.421,4.421,0,0,1-.2,2l-.1.1c-.5.3-3,.1-3.8.1V53.9h4.1Zm-.2-12.4h0c-.7.4-2.9.2-3.8.2V32.9h4v5.9c0,.8.2,2-.2,2.6m.1-10c-.2.3-3.4.2-4,.2V29.3h4.1a3.717,3.717,0,0,1-.1,2.1M36.62,29V40.9l-.2.6c-.6.4-2.9.2-3.8.2H22.42V35.4a9.662,9.662,0,0,1,.1-2.4c.2-.5,2.2-1.6,2.8-1.9,2.5-1.6,5.1-3.3,7.6-4.9.7-.5,1.5-1,2.2-1.5.5-.3,1-.6,1.4-.8v-.1a5.31,5.31,0,0,1,.1,1.8V29Zm-.1,33.7-.1.1a13.551,13.551,0,0,1-3.5.1H22.42V53.8h14.3v7a10.074,10.074,0,0,1-.2,1.9m0,5.3-.3.1a24.439,24.439,0,0,1-4.7.1h-9.1V64.5h14.3c-.1.6.1,3.2-.2,3.5m0-15.9-.1.1c-.7.3-3,.1-3.9.1h-10V43.2h14.3v6.6c-.2.7,0,1.7-.3,2.3M41.92,68c-.2.3-3.3.2-3.8.2V64.5h4c-.1.8.1,2.8-.2,3.5m.1-44.9V41.2l-.1.3c-.3.3-3.1.2-3.8.2V23.1h3.9Zm-4-1.3V19.2h4c0,.5.1,2.2-.2,2.4-.3.3-3.1.2-3.8.2m4,21.3v6.6a8.48,8.48,0,0,1-.1,2.3l-.1.1c-.5.3-3,.2-3.8.2V43.2h4v-.1Zm0,10.7v6.6c0,.7.2,1.8-.1,2.3l-.1.1c-.5.3-3,.1-3.8.1V53.8h4ZM57.82,68c-.8.5-2.8.2-3.9.2H43.32V64.5h14.6a13.551,13.551,0,0,1-.1,3.5m.1-8.2a9.959,9.959,0,0,1-.1,3l-.1.1c-.7.3-2.9.1-3.8.1H43.32V53.9h14.7c0,2-.1,3.9-.1,5.9m0-7.7-.1.1a12.788,12.788,0,0,1-3.4.1h-11V43.2h14.6v6.6a8.684,8.684,0,0,1-.1,2.3m0-10.7-.1.1c-.7.3-2.9.1-3.8.1H43.32V23.5c3.5,2.2,7.1,4.5,10.6,6.7.7.4,3.6,2,3.9,2.6.3.7.1,3.9.1,4.9.1,1,.3,3.1,0,3.7m.1-10.2h-.1c0-.1-4.1-2.7-4.7-3-2.6-1.6-5.1-3.2-7.7-4.9-.5-.3-1.9-1-2.1-1.5-.3-.7-.1-3-.1-4h-4.4a7.234,7.234,0,0,0-2.1.1c-.6.3.2,3.6-.6,4.3l-13.8,9h-.1V27.9c-.9,0-6.2-.1-6.5.2-.5.5.1,3.1-.4,3.4s-1.3.1-1.8.1H8.22v-.1c2.7-1.8,5.5-3.5,8.2-5.3,5.5-3.5,11-7,16.4-10.6l4.8-3c.7-.5,1.5-.9,2.2-1.4v-.1a14.917,14.917,0,0,1,3,1.8l4.2,2.7c5.7,3.6,11.4,7.3,17.2,10.9,2.2,1.4,4.5,2.8,6.7,4.3l.8.6-.2.1a20.9,20.9,0,0,0-2.5.1h-4.3V27.9c-.9,0-6.4-.1-6.6.2-.3.5-.1,2.3-.1,3.1m5.3,10.2h0c-.6.4-3,.2-3.8.2,0-3,.1-5.8.1-8.7h3.9v6.5a12.31,12.31,0,0,1-.2,2m0-10c-.2.3-3.4.2-4,.2V29.3h4.1a7.235,7.235,0,0,1-.1,2.1m-3.9,11.7h4v6.6c0,.7.2,1.8-.1,2.3l-.1.1a16.444,16.444,0,0,1-3.9.2c0-3.1.1-6,.1-9.2M63.22,68c-.3.3-3.2.2-3.9.2V64.5h4.1c0,.6.2,3.2-.2,3.5m.1-5.3h0c-.6.4-3.1.2-4,.2V53.8h4.1v6.5c0,.8.2,1.9-.1,2.4M73.52,68h0c-.6.4-1.7.2-2.4.2h-6.4V64.5h9c0,.8.2,2.8-.2,3.5m1.5-24.9h3.9v7a6.56,6.56,0,0,1-.1,2l-.1.1c-.6.4-2.8.2-3.7.2V43.1Zm0,10.7h3.9v6.9a7.235,7.235,0,0,1-.1,2.1l-.1.1a15.143,15.143,0,0,1-3.7.1V53.8ZM78.72,68c-.3.3-3,.2-3.7.2V64.5h3.9c-.1.6.1,3.2-.2,3.5m0-26.6h0c-.7.4-2.9.2-3.7.2V32.9h3.9v6.2c-.1.7.1,1.8-.2,2.3m.1-10c-.2.3-3.3.2-3.8.2V29.3h4c-.1.6.1,1.6-.2,2.1m2.2-9.3a2.725,2.725,0,0,0,1.2-.6c1.1-.6,2.2-1.2,3.2-1.7a3.924,3.924,0,0,0,1.4-.8,10.085,10.085,0,0,1,1.8.9c1.1.6,2.3,1.2,3.4,1.8l.7.5-.4.1H81.02v-.2Zm-.7,10.8h13.4v6.3a7.747,7.747,0,0,1-.1,2.2l-.1.1a12.788,12.788,0,0,1-3.4.1h-9.7V32.9h-.1Zm0,10.2h13.4V50a7.235,7.235,0,0,1-.1,2.1l-.1.1a14.189,14.189,0,0,1-3.6.1h-9.5V43.1h-.1Zm0,10.7h13.4v7a6.56,6.56,0,0,1-.1,2l-.1.1a14.189,14.189,0,0,1-3.6.1h-9.5V53.8h-.1ZM93.62,68c-.3.3-11.7.2-13.2.2V64.5h13.4c-.1.6.1,3.2-.2,3.5m.1-36.6-.1.1a12.649,12.649,0,0,1-3.4.1h-9.8v-8h13.5V29a8.966,8.966,0,0,1-.2,2.4" transform="translate(-0.004)" fill="#bd1732"/>
</svg>
